<?xml version="1.0" encoding="UTF-8"?>
<svg version="1.1" xmlns="http://www.w3.org/2000/svg" width="500" height="500">
<path d="M0 0 C1.6875 1.375 1.6875 1.375 3 3 C3 3.66 3 4.32 3 5 C3.66 5 4.32 5 5 5 C5 5.66 5 6.32 5 7 C5.66 7 6.32 7 7 7 C7 7.66 7 8.32 7 9 C7.66 9 8.32 9 9 9 C9 9.66 9 10.32 9 11 C9.66 11 10.32 11 11 11 C11 11.66 11 12.32 11 13 C11.66 13 12.32 13 13 13 C13 13.66 13 14.32 13 15 C13.66 15 14.32 15 15 15 C16.625 16.375 16.625 16.375 18 18 C18 18.66 18 19.32 18 20 C18.66 20 19.32 20 20 20 C20 20.66 20 21.32 20 22 C20.66 22 21.32 22 22 22 C22 22.66 22 23.32 22 24 C22.66 24 23.32 24 24 24 C24 24.66 24 25.32 24 26 C24.66 26 25.32 26 26 26 C26 26.66 26 27.32 26 28 C26.66 28 27.32 28 28 28 C29.6875 29.25 29.6875 29.25 31 31 C30.30235093 35.20708467 28.18098359 38.81047267 26.25 42.5625 C25.51575709 44.01633678 24.78268379 45.47076485 24.05078125 46.92578125 C23.69580566 47.63041504 23.34083008 48.33504883 22.97509766 49.06103516 C7.72022661 79.39508269 -3.31408379 118.53059348 6.671875 152.14453125 C11.70138621 167.29883541 18.94488429 180.37059256 30 192 C29.34 193.32 28.68 194.64 28 196 C27.34 196 26.68 196 26 196 C26 196.66 26 197.32 26 198 C25.34 198 24.68 198 24 198 C24 198.66 24 199.32 24 200 C23.34 200 22.68 200 22 200 C22 200.66 22 201.32 22 202 C21.34 202 20.68 202 20 202 C20 202.66 20 203.32 20 204 C19.34 204 18.68 204 18 204 C18 204.66 18 205.32 18 206 C17.34 206 16.68 206 16 206 C15.67 206.99 15.34 207.98 15 209 C14.34 209 13.68 209 13 209 C13 209.66 13 210.32 13 211 C12.34 211 11.68 211 11 211 C11 211.66 11 212.32 11 213 C10.34 213 9.68 213 9 213 C9 213.66 9 214.32 9 215 C8.34 215 7.68 215 7 215 C7 215.66 7 216.32 7 217 C6.34 217 5.68 217 5 217 C5 217.66 5 218.32 5 219 C4.34 219 3.68 219 3 219 C2.731875 219.639375 2.46375 220.27875 2.1875 220.9375 C1 223 1 223 -2 224 C-2 224.66 -2 225.32 -2 226 C-6.38027425 225.55178589 -8.29386973 222.91072454 -11.125 219.75 C-11.99382812 218.79609375 -12.86265625 217.8421875 -13.7578125 216.859375 C-15.81176996 214.24004249 -16.97999336 212.14024517 -18 209 C-18.66 209 -19.32 209 -20 209 C-20.37511719 208.29875 -20.75023437 207.5975 -21.13671875 206.875 C-24.60432954 200.43409058 -24.60432954 200.43409058 -28.5 194.25 C-33.87975847 185.8332811 -37.08230287 175.49720206 -40 166 C-40.350625 164.906875 -40.70125 163.81375 -41.0625 162.6875 C-43.78269007 151.98808571 -44.36183664 141.41415962 -44.5625 130.4375 C-44.6066224 128.26634038 -44.65327633 126.09531661 -44.70530701 123.92433167 C-44.75135462 121.97889604 -44.78912815 120.03326972 -44.82641602 118.08764648 C-44.86659301 114.96275529 -44.86659301 114.96275529 -46 112 C-46.99 112.33 -47.98 112.66 -49 113 C-49 113.66 -49 114.32 -49 115 C-51.73955562 118.04395069 -54.18063472 120.44396229 -58 122 C-58 122.66 -58 123.32 -58 124 C-58.66 124 -59.32 124 -60 124 C-60 124.66 -60 125.32 -60 126 C-60.66 126 -61.32 126 -62 126 C-62 126.66 -62 127.32 -62 128 C-63.375 129.625 -63.375 129.625 -65 131 C-65.66 131 -66.32 131 -67 131 C-67 131.66 -67 132.32 -67 133 C-67.66 133 -68.32 133 -69 133 C-69 133.66 -69 134.32 -69 135 C-69.66 135 -70.32 135 -71 135 C-71 135.66 -71 136.32 -71 137 C-71.66 137 -72.32 137 -73 137 C-73 137.66 -73 138.32 -73 139 C-73.66 139 -74.32 139 -75 139 C-75 139.66 -75 140.32 -75 141 C-76.375 142.625 -76.375 142.625 -78 144 C-78.66 144 -79.32 144 -80 144 C-80 144.66 -80 145.32 -80 146 C-80.66 146 -81.32 146 -82 146 C-82 146.66 -82 147.32 -82 148 C-82.66 148 -83.32 148 -84 148 C-84 148.66 -84 149.32 -84 150 C-84.66 150 -85.32 150 -86 150 C-86 150.66 -86 151.32 -86 152 C-86.66 152 -87.32 152 -88 152 C-88 152.66 -88 153.32 -88 154 C-88.66 154 -89.32 154 -90 154 C-90 154.66 -90 155.32 -90 156 C-92.375 158.625 -92.375 158.625 -95 161 C-95.66 161 -96.32 161 -97 161 C-97 161.66 -97 162.32 -97 163 C-97.66 163 -98.32 163 -99 163 C-99 163.66 -99 164.32 -99 165 C-99.66 165 -100.32 165 -101 165 C-101 165.66 -101 166.32 -101 167 C-101.66 167 -102.32 167 -103 167 C-103 167.66 -103 168.32 -103 169 C-104.375 170.625 -104.375 170.625 -106 172 C-106.66 172 -107.32 172 -108 172 C-108 172.66 -108 173.32 -108 174 C-108.66 174 -109.32 174 -110 174 C-110 174.66 -110 175.32 -110 176 C-110.66 176 -111.32 176 -112 176 C-112 176.66 -112 177.32 -112 178 C-112.66 178 -113.32 178 -114 178 C-114 178.66 -114 179.32 -114 180 C-114.66 180 -115.32 180 -116 180 C-116.268125 180.598125 -116.53625 181.19625 -116.8125 181.8125 C-117.99917406 183.99847854 -119.09599113 185.41332594 -121 187 C-121.66 187 -122.32 187 -123 187 C-123 187.66 -123 188.32 -123 189 C-123.66 189 -124.32 189 -125 189 C-125 189.66 -125 190.32 -125 191 C-125.66 191 -126.32 191 -127 191 C-127 191.66 -127 192.32 -127 193 C-127.66 193 -128.32 193 -129 193 C-129.268125 193.598125 -129.53625 194.19625 -129.8125 194.8125 C-130.99917406 196.99847854 -132.09599113 198.41332594 -134 200 C-134.66 200 -135.32 200 -136 200 C-136 200.66 -136 201.32 -136 202 C-136.66 202 -137.32 202 -138 202 C-138 202.66 -138 203.32 -138 204 C-138.66 204 -139.32 204 -140 204 C-140 204.66 -140 205.32 -140 206 C-140.66 206 -141.32 206 -142 206 C-142 206.66 -142 207.32 -142 208 C-142.66 208 -143.32 208 -144 208 C-144 208.66 -144 209.32 -144 210 C-144.66 210 -145.32 210 -146 210 C-146 210.66 -146 211.32 -146 212 C-147.375 213.625 -147.375 213.625 -149 215 C-149.66 215 -150.32 215 -151 215 C-151 215.66 -151 216.32 -151 217 C-151.66 217 -152.32 217 -153 217 C-153 217.66 -153 218.32 -153 219 C-153.66 219 -154.32 219 -155 219 C-155.226875 219.639375 -155.45375 220.27875 -155.6875 220.9375 C-157 223 -157 223 -159.4375 223.9375 C-162 224 -162 224 -163.8125 222.6875 C-165 221 -165 221 -165 219 C-165.66 219 -166.32 219 -167 219 C-167 218.34 -167 217.68 -167 217 C-167.66 217 -168.32 217 -169 217 C-169 216.34 -169 215.68 -169 215 C-169.66 215 -170.32 215 -171 215 C-171 214.34 -171 213.68 -171 213 C-171.66 213 -172.32 213 -173 213 C-173 212.34 -173 211.68 -173 211 C-173.66 211 -174.32 211 -175 211 C-177.625 208.625 -177.625 208.625 -180 206 C-180 205.34 -180 204.68 -180 204 C-180.66 204 -181.32 204 -182 204 C-182 203.34 -182 202.68 -182 202 C-182.66 202 -183.32 202 -184 202 C-184 201.34 -184 200.68 -184 200 C-184.66 200 -185.32 200 -186 200 C-186 199.34 -186 198.68 -186 198 C-186.66 198 -187.32 198 -188 198 C-188 197.34 -188 196.68 -188 196 C-188.66 196 -189.32 196 -190 196 C-191.6875 194.8125 -191.6875 194.8125 -193 193 C-192.64401161 188.99194108 -191.52428702 187.02521387 -188.69140625 184.23046875 C-188.02689453 183.56982422 -187.36238281 182.90917969 -186.67773438 182.22851562 C-185.97970703 181.55498047 -185.28167969 180.88144531 -184.5625 180.1875 C-183.86833984 179.49462891 -183.17417969 178.80175781 -182.45898438 178.08789062 C-177.28086515 173 -177.28086515 173 -175 173 C-175 172.34 -175 171.68 -175 171 C-174.34 171 -173.68 171 -173 171 C-172.7628125 170.43796875 -172.525625 169.8759375 -172.28125 169.296875 C-170.71052303 166.48105958 -168.78528536 164.52044584 -166.5 162.25 C-165.30890625 161.05117188 -165.30890625 161.05117188 -164.09375 159.828125 C-162 158 -162 158 -160 158 C-159.7628125 157.43796875 -159.525625 156.8759375 -159.28125 156.296875 C-157.71052303 153.48105958 -155.78528536 151.52044584 -153.5 149.25 C-152.7059375 148.45078125 -151.911875 147.6515625 -151.09375 146.828125 C-149 145 -149 145 -147 145 C-146.7525 144.4225 -146.505 143.845 -146.25 143.25 C-144.81700012 140.67060021 -143.21575324 138.93878408 -141 137 C-140.34 137 -139.68 137 -139 137 C-138.731875 136.401875 -138.46375 135.80375 -138.1875 135.1875 C-137.00082594 133.00152146 -135.90400887 131.58667406 -134 130 C-133.34 130 -132.68 130 -132 130 C-131.7628125 129.43796875 -131.525625 128.8759375 -131.28125 128.296875 C-129.71052303 125.48105958 -127.78528536 123.52044584 -125.5 121.25 C-124.30890625 120.05117188 -124.30890625 120.05117188 -123.09375 118.828125 C-121 117 -121 117 -119 117 C-118.7834375 116.45859375 -118.566875 115.9171875 -118.34375 115.359375 C-116.53500003 112.18354656 -114.08276201 109.79271919 -111.5 107.25 C-111.00113281 106.74339844 -110.50226563 106.23679687 -109.98828125 105.71484375 C-106.25341139 102 -106.25341139 102 -104 102 C-103.7628125 101.43796875 -103.525625 100.8759375 -103.28125 100.296875 C-101.71052303 97.48105958 -99.78528536 95.52044584 -97.5 93.25 C-96.30890625 92.05117187 -96.30890625 92.05117187 -95.09375 90.828125 C-93 89 -93 89 -91 89 C-90.76539063 88.43796875 -90.53078125 87.8759375 -90.2890625 87.296875 C-88.69337 84.45364109 -86.71075457 82.51901873 -84.375 80.25 C-83.55773437 79.45078125 -82.74046875 78.6515625 -81.8984375 77.828125 C-81.27195312 77.22484375 -80.64546875 76.6215625 -80 76 C-81.00675781 76.01160156 -82.01351562 76.02320313 -83.05078125 76.03515625 C-115.0997297 76.29766269 -146.42851623 72.33027711 -173.23046875 53.1640625 C-175.10541663 51.82197738 -175.10541663 51.82197738 -178 51 C-178 50.34 -178 49.68 -178 49 C-179.04220703 48.67322266 -179.04220703 48.67322266 -180.10546875 48.33984375 C-183.73975037 46.65757844 -186.41511061 44.26274017 -189.3125 41.5625 C-189.86228516 41.07201172 -190.41207031 40.58152344 -190.97851562 40.07617188 C-192.38282425 38.78351014 -193.69893061 37.39652265 -195 36 C-195 35.01 -195 34.02 -195 33 C-194.34 33 -193.68 33 -193 33 C-192.731875 32.360625 -192.46375 31.72125 -192.1875 31.0625 C-191 29 -191 29 -188 28 C-188 27.34 -188 26.68 -188 26 C-187.34 26 -186.68 26 -186 26 C-185.34 24.68 -184.68 23.36 -184 22 C-183.34 22 -182.68 22 -182 22 C-182 21.34 -182 20.68 -182 20 C-181.34 20 -180.68 20 -180 20 C-180 19.34 -180 18.68 -180 18 C-179.34 18 -178.68 18 -178 18 C-177.67 17.01 -177.34 16.02 -177 15 C-176.34 15 -175.68 15 -175 15 C-175 14.34 -175 13.68 -175 13 C-174.34 13 -173.68 13 -173 13 C-172.34 11.68 -171.68 10.36 -171 9 C-170.34 9 -169.68 9 -169 9 C-169 8.34 -169 7.68 -169 7 C-168.34 7 -167.68 7 -167 7 C-167 6.34 -167 5.68 -167 5 C-166.34 5 -165.68 5 -165 5 C-164.34 3.68 -163.68 2.36 -163 1 C-159.44431466 2.5509718 -156.85985485 4.71930095 -153.9375 7.25 C-148.60140209 11.66608103 -143.23595825 15.0130284 -137 18 C-136.10023438 18.44085938 -135.20046875 18.88171875 -134.2734375 19.3359375 C-110.7800421 30.01475359 -81.74183062 30.30577835 -57.3125 22.5625 C-56.22727051 22.22992188 -56.22727051 22.22992188 -55.12011719 21.890625 C-53.70424179 21.45653322 -52.28930443 21.0193657 -50.87548828 20.57861328 C-48.51059759 19.84901279 -46.13031252 19.1773247 -43.75 18.5 C-30.60377761 14.49416456 -18.01388243 8.7880158 -6.2109375 1.75390625 C-3 0 -3 0 0 0 Z " fill="#FDFAFA" transform="translate(331,138)"/>
<path d="M0 0 C0.68835938 0.00451172 1.37671875 0.00902344 2.0859375 0.01367188 C3.76566335 0.02533664 5.44534375 0.04326729 7.125 0.0625 C1.68252212 6.52090708 1.68252212 6.52090708 -1.0625 9.1875 C-2.95848357 10.98718747 -2.95848357 10.98718747 -4.109375 13.28515625 C-6.32952491 16.77747171 -9.00116157 19.48086044 -11.9375 22.375 C-12.47955078 22.92478516 -13.02160156 23.47457031 -13.58007812 24.04101562 C-17.62154503 28.0625 -17.62154503 28.0625 -19.875 28.0625 C-20.2153125 28.866875 -20.2153125 28.866875 -20.5625 29.6875 C-21.875 32.0625 -21.875 32.0625 -24.4375 35.125 C-27.01037799 37.86455688 -27.01037799 37.86455688 -27.875 41.0625 C-29.72265625 41.79296875 -29.72265625 41.79296875 -31.9375 42.25 C-32.67097656 42.40855469 -33.40445313 42.56710938 -34.16015625 42.73046875 C-34.72605469 42.84003906 -35.29195312 42.94960937 -35.875 43.0625 C-34.262672 39.03168 -31.41265404 36.30305863 -28.375 33.3125 C-27.87613281 32.80589844 -27.37726563 32.29929688 -26.86328125 31.77734375 C-23.12841139 28.0625 -23.12841139 28.0625 -20.875 28.0625 C-20.6378125 27.50046875 -20.400625 26.9384375 -20.15625 26.359375 C-18.58552303 23.54355958 -16.66028536 21.58294584 -14.375 19.3125 C-13.5809375 18.51328125 -12.786875 17.7140625 -11.96875 16.890625 C-9.875 15.0625 -9.875 15.0625 -7.875 15.0625 C-7.64039063 14.50046875 -7.40578125 13.9384375 -7.1640625 13.359375 C-4.65461428 8.88799453 -0.52217826 5.60547317 3.125 2.0625 C-2.485 2.0625 -8.095 2.0625 -13.875 2.0625 C-13.875 1.7325 -13.875 1.4025 -13.875 1.0625 C-9.21962644 0.14157719 -4.72814567 -0.05955997 0 0 Z " fill="#F0908E" transform="translate(247.875,211.9375)"/>
<path d="M0 0 C0.33 0 0.66 0 1 0 C1.12117188 0.85980469 1.24234375 1.71960938 1.3671875 2.60546875 C1.53476562 3.78753906 1.70234375 4.96960938 1.875 6.1875 C2.05546875 7.46238281 2.2359375 8.73726563 2.421875 10.05078125 C2.95115295 13.66632185 3.53320822 17.2692972 4.125 20.875 C4.87554889 25.66561282 5.18986093 30.1585462 5 35 C5.66 35 6.32 35 7 35 C7.50833591 36.24663331 8.00631145 37.49749387 8.5 38.75 C8.7784375 39.44609375 9.056875 40.1421875 9.34375 40.859375 C10 43 10 43 10 47 C10.66 47 11.32 47 12 47 C12.33 50.3 12.66 53.6 13 57 C10.25780967 54.25780967 9.31365848 51.00904697 8 47.4375 C7.7316333 46.71747803 7.4632666 45.99745605 7.18676758 45.25561523 C5.3483501 40.22078746 4.01651808 35.26741185 3 30 C2.67 29.67 2.34 29.34 2 29 C-0.41352264 19.41637727 -0.20887806 9.79406008 0 0 Z " fill="#F4A1A1" transform="translate(287,268)"/>
<path d="M0 0 C0.66 0 1.32 0 2 0 C1.52794881 4.24846075 -0.88877522 6.26819288 -4 9 C-4.66 9 -5.32 9 -6 9 C-6 9.66 -6 10.32 -6 11 C-6.99 11.33 -7.98 11.66 -9 12 C-9.85650653 14.80045046 -9.85650653 14.80045046 -10 18 C-8.12491838 20.2085766 -8.12491838 20.2085766 -6 22 C-6 22.99 -6 23.98 -6 25 C-9.82352106 23.4422692 -12.29205593 21.08404742 -15 18 C-15 17.01 -15 16.02 -15 15 C-14.34 15 -13.68 15 -13 15 C-12.731875 14.360625 -12.46375 13.72125 -12.1875 13.0625 C-11 11 -11 11 -8 10 C-8 9.34 -8 8.68 -8 8 C-7.34 8 -6.68 8 -6 8 C-5.34 6.68 -4.68 5.36 -4 4 C-3.34 4 -2.68 4 -2 4 C-2 3.34 -2 2.68 -2 2 C-1.34 2 -0.68 2 0 2 C0 1.34 0 0.68 0 0 Z " fill="#F3A2A1" transform="translate(151,156)"/>
<path d="M0 0 C0.33 0 0.66 0 1 0 C0.9278125 0.63679687 0.855625 1.27359375 0.78125 1.9296875 C-0.3958507 14.25654761 -0.09002296 26.63084516 0 39 C-0.66 39 -1.32 39 -2 39 C-2.98145698 36.05562907 -3.1288698 34.13104342 -3.1328125 31.0625 C-3.13410156 30.08410156 -3.13539063 29.10570312 -3.13671875 28.09765625 C-3.13285156 27.07542969 -3.12898438 26.05320312 -3.125 25 C-3.12886719 24.00871094 -3.13273437 23.01742188 -3.13671875 21.99609375 C-3.12796218 15.27980219 -2.72122973 8.67671443 -2 2 C-1.34 2 -0.68 2 0 2 C0 1.34 0 0.68 0 0 Z " fill="#F1B4B3" transform="translate(335,237)"/>
<path d="M0 0 C-1.19534912 2.82537064 -2.56124041 4.67075074 -4.5625 7.0625 C-7.13537799 9.80205688 -7.13537799 9.80205688 -8 13 C-9.84765625 13.73046875 -9.84765625 13.73046875 -12.0625 14.1875 C-12.79597656 14.34605469 -13.52945313 14.50460938 -14.28515625 14.66796875 C-14.85105469 14.77753906 -15.41695312 14.88710937 -16 15 C-14.38669686 10.99060757 -11.57540302 8.24326219 -8.5625 5.25 C-8.07201172 4.74339844 -7.58152344 4.23679688 -7.07617188 3.71484375 C-3.36633465 0 -3.36633465 0 0 0 Z " fill="#F5A7A7" transform="translate(228,240)"/>
<path d="M0 0 C5.25896414 -0.35059761 5.25896414 -0.35059761 8 0 C9.37562854 1.28965176 10.70766393 2.62689293 12 4 C14.65132778 4.93515825 17.23149993 5.44629999 20 6 C20 6.66 20 7.32 20 8 C22.97 8.99 25.94 9.98 29 11 C24.90339093 12.36553636 22.27622635 10.88585606 18.4375 9.375 C17.72529297 9.10155762 17.01308594 8.82811523 16.27929688 8.54638672 C10.68132602 6.35912525 5.28348742 3.87035615 0 1 C0 0.67 0 0.34 0 0 Z " fill="#F29599" transform="translate(167,196)"/>
<path d="M0 0 C1.8253125 0.0309375 1.8253125 0.0309375 3.6875 0.0625 C3.6875 0.7225 3.6875 1.3825 3.6875 2.0625 C-0.47654764 3.22911952 -4.5023068 3.18826063 -8.796875 3.16015625 C-9.61246887 3.1587413 -10.42806274 3.15732635 -11.26837158 3.15586853 C-13.86645212 3.15028303 -16.46444563 3.13773321 -19.0625 3.125 C-20.82682167 3.11998312 -22.59114469 3.11542054 -24.35546875 3.11132812 C-28.67451256 3.10031835 -32.99349154 3.08306369 -37.3125 3.0625 C-36.9825 2.4025 -36.6525 1.7425 -36.3125 1.0625 C-35.52077393 1.06773682 -34.72904785 1.07297363 -33.91333008 1.07836914 C-30.31722816 1.09918937 -26.72113895 1.11217627 -23.125 1.125 C-21.87912109 1.13337891 -20.63324219 1.14175781 -19.34960938 1.15039062 C-17.5465332 1.15522461 -17.5465332 1.15522461 -15.70703125 1.16015625 C-14.60206299 1.16539307 -13.49709473 1.17062988 -12.35864258 1.17602539 C-8.15145139 1.01922937 -4.222046 -0.0715601 0 0 Z " fill="#ED9595" transform="translate(261.3125,163.9375)"/>
<path d="M0 0 C0.99 0.33 1.98 0.66 3 1 C3.33 2.65 3.66 4.3 4 6 C4.61875 6.04125 5.2375 6.0825 5.875 6.125 C8 7 8 7 9.0625 9.5 C9.371875 10.655 9.68125 11.81 10 13 C10.53290955 14.62789287 11.07489721 16.25283642 11.625 17.875 C12.08333333 19.25 12.54166667 20.625 13 22 C12.34 22 11.68 22 11 22 C10.62488281 21.29875 10.24976563 20.5975 9.86328125 19.875 C7.05179992 14.66278272 4.19305784 9.56957012 0.8828125 4.65625 C0 3 0 3 0 0 Z " fill="#F8D1CF" transform="translate(300,325)"/>
<path d="M0 0 C3.52238047 1.56367357 6.27123994 3.69495889 9.25 6.125 C10.14203125 6.84945312 11.0340625 7.57390625 11.953125 8.3203125 C12.62859375 8.87460938 13.3040625 9.42890625 14 10 C13.01 10.495 13.01 10.495 12 11 C5.6 8.6 5.6 8.6 3 6 C3 5.01 3 4.02 3 3 C2.2575 3.639375 1.515 4.27875 0.75 4.9375 C-1.7111121 6.78333407 -3.03466926 7.56069174 -6 8 C-6 7.34 -6 6.68 -6 6 C-5.34 6 -4.68 6 -4 6 C-4 5.34 -4 4.68 -4 4 C-3.34 4 -2.68 4 -2 4 C-1.34 2.68 -0.68 1.36 0 0 Z " fill="#F5ABA8" transform="translate(168,139)"/>
<path d="M0 0 C3.51982619 0.60751449 6.58900235 1.54646266 9.875 2.9375 C13.87869031 4.5857258 17.81308165 5.90776043 22 7 C22 7.33 22 7.66 22 8 C14.38656208 8.74641548 7.75415184 6.52088679 1 3 C0.67 2.01 0.34 1.02 0 0 Z " fill="#F2A2A0" transform="translate(191,156)"/>
<path d="M0 0 C0.82351864 6.38226945 1.12086218 12.56744599 1 19 C0.01 18.67 -0.98 18.34 -2 18 C-1.98839844 17.31292969 -1.97679687 16.62585938 -1.96484375 15.91796875 C-1.95582031 15.01691406 -1.94679688 14.11585938 -1.9375 13.1875 C-1.92589844 12.29417969 -1.91429687 11.40085937 -1.90234375 10.48046875 C-1.88990033 7.86586209 -1.88990033 7.86586209 -3 5 C-3.99 5 -4.98 5 -6 5 C-1.125 0 -1.125 0 0 0 Z " fill="#FFD2CF" transform="translate(288,245)"/>
<path d="M0 0 C-0.54714289 3.83000023 -2.10513208 5.50719706 -5 8 C-6.65532623 9.01866229 -8.32260138 10.01810813 -10 11 C-11.68477344 12.31037934 -13.35648543 13.63823078 -15 15 C-13.55922954 11.63820226 -11.75249979 9.40843732 -9 7 C-8.34 7 -7.68 7 -7 7 C-6.731875 6.401875 -6.46375 5.80375 -6.1875 5.1875 C-3.37142857 0 -3.37142857 0 0 0 Z " fill="#F18788" transform="translate(199,268)"/>
<path d="M0 0 C1.36633087 3.69866636 0.60165824 5.83464456 -0.8125 9.4375 C-1.34810547 10.82775391 -1.34810547 10.82775391 -1.89453125 12.24609375 C-2.25933594 13.15488281 -2.62414062 14.06367188 -3 15 C-3.37511719 15.93972656 -3.75023437 16.87945312 -4.13671875 17.84765625 C-4.42160156 18.55792969 -4.70648438 19.26820313 -5 20 C-6.25689824 16.22930529 -5.58733573 14.22169112 -4.6875 10.375 C-4.42324219 9.20710937 -4.15898437 8.03921875 -3.88671875 6.8359375 C-3.59410156 5.90007812 -3.30148437 4.96421875 -3 4 C-2.34 3.67 -1.68 3.34 -1 3 C-0.67 2.01 -0.34 1.02 0 0 Z " fill="#F07E7E" transform="translate(346,200)"/>
<path d="M0 0 C2.31 0.33 4.62 0.66 7 1 C7 1.66 7 2.32 7 3 C7.61875 3.2475 8.2375 3.495 8.875 3.75 C11.35068687 5.20628639 11.95125002 6.37812506 13 9 C9.66666667 7.33333333 6.33333333 5.66666667 3 4 C3 3.34 3 2.68 3 2 C2.01 1.67 1.02 1.34 0 1 C0 0.67 0 0.34 0 0 Z " fill="#F2A2A0" transform="translate(150,185)"/>
<path d="M0 0 C1.32 0.99 2.64 1.98 4 3 C3.34 4.32 2.68 5.64 2 7 C1.34 7 0.68 7 0 7 C0 7.66 0 8.32 0 9 C-0.66 9 -1.32 9 -2 9 C-2 9.66 -2 10.32 -2 11 C-2.66 10.67 -3.32 10.34 -4 10 C-3.34 8.35 -2.68 6.7 -2 5 C-1.34 5 -0.68 5 0 5 C0 3.35 0 1.7 0 0 Z " fill="#F49C9B" transform="translate(357,327)"/>
<path d="M0 0 C0.66 0.33 1.32 0.66 2 1 C1.5547115 6.27315333 0.91626837 11.01770224 -1 16 C-1.33 16 -1.66 16 -2 16 C-2.20674944 10.21101581 -1.59162079 5.57067277 0 0 Z " fill="#F49B9E" transform="translate(338,219)"/>
<path d="M0 0 C1.6875 1.375 1.6875 1.375 3 3 C3 3.66 3 4.32 3 5 C3.66 5 4.32 5 5 5 C5 5.66 5 6.32 5 7 C4.01 7 3.02 7 2 7 C2 6.34 2 5.68 2 5 C1.34 5 0.68 5 0 5 C0 4.34 0 3.68 0 3 C-2.64 3.33 -5.28 3.66 -8 4 C-6.27302455 0.54604909 -3.70696841 0 0 0 Z " fill="#F07979" transform="translate(331,138)"/>
<path d="M0 0 C0.66 0 1.32 0 2 0 C1.52794881 4.24846075 -0.88877522 6.26819288 -4 9 C-4.66 9 -5.32 9 -6 9 C-5.6875 7.0625 -5.6875 7.0625 -5 5 C-4.01 4.67 -3.02 4.34 -2 4 C-2 3.34 -2 2.68 -2 2 C-1.34 2 -0.68 2 0 2 C0 1.34 0 0.68 0 0 Z " fill="#F4B4AB" transform="translate(151,156)"/>
<path d="M0 0 C0.33 0.66 0.66 1.32 1 2 C0.34 2 -0.32 2 -1 2 C-1 2.66 -1 3.32 -1 4 C-1.66 4 -2.32 4 -3 4 C-3 4.66 -3 5.32 -3 6 C-3.66 6 -4.32 6 -5 6 C-5 6.66 -5 7.32 -5 8 C-5.66 8 -6.32 8 -7 8 C-7 8.66 -7 9.32 -7 10 C-7.66 9.67 -8.32 9.34 -9 9 C-8.34 7.68 -7.68 6.36 -7 5 C-6.34 5 -5.68 5 -5 5 C-5 4.01 -5 3.02 -5 2 C-3.35 1.34 -1.7 0.68 0 0 Z " fill="#F59CAA" transform="translate(196,336)"/>
<path d="M0 0 C1.32 0 2.64 0 4 0 C4 2 4 2 2.625 3.625 C1 5 1 5 -1 5 C-1 5.66 -1 6.32 -1 7 C-1.66 7 -2.32 7 -3 7 C-3 7.66 -3 8.32 -3 9 C-3.66 8.67 -4.32 8.34 -5 8 C-4.34 6.68 -3.68 5.36 -3 4 C-2.34 4 -1.68 4 -1 4 C-0.67 2.68 -0.34 1.36 0 0 Z " fill="#F5A3A7" transform="translate(224,305)"/>
<path d="M0 0 C2.24956302 2.24956302 3.00510965 4.06323263 4.1875 7 C4.55230469 7.886875 4.91710937 8.77375 5.29296875 9.6875 C6 12 6 12 5 14 C4.67 13.01 4.34 12.02 4 11 C3.01 10.67 2.02 10.34 1 10 C0.67 6.7 0.34 3.4 0 0 Z " fill="#F28989" transform="translate(338,294)"/>
<path d="M0 0 C7.34693878 -0.48979592 7.34693878 -0.48979592 10.5 1.875 C12 4 12 4 12 6 C7.53866273 4.86279638 3.79558613 3.64540851 0 1 C0 0.67 0 0.34 0 0 Z " fill="#F2A0A1" transform="translate(167,196)"/>
<path d="M0 0 C0 0.66 0 1.32 0 2 C-4.873261 3.5912689 -8.80790596 4.21192221 -14 4 C-11.8553857 1.8553857 -10.98260002 1.55435397 -8.125 0.875 C-7.44695312 0.70742187 -6.76890625 0.53984375 -6.0703125 0.3671875 C-4 0 -4 0 0 0 Z " fill="#F28583" transform="translate(279,160)"/>
<path d="M0 0 C2.375 1 2.375 1 5 3 C6.04768041 5.66921593 6.48684546 8.15432483 7 11 C6.34 11 5.68 11 5 11 C4.16151196 9.54462432 3.32936066 8.08559627 2.5 6.625 C1.80390625 5.40683594 1.80390625 5.40683594 1.09375 4.1640625 C0 2 0 2 0 0 Z " fill="#F5A2A2" transform="translate(306,336)"/>
<path d="M0 0 C2.97 0.495 2.97 0.495 6 1 C6.33 2.65 6.66 4.3 7 6 C6.01 6.495 6.01 6.495 5 7 C5 6.34 5 5.68 5 5 C4.34 5 3.68 5 3 5 C3 4.34 3 3.68 3 3 C2.34 3 1.68 3 1 3 C0.67 2.01 0.34 1.02 0 0 Z " fill="#F2A3A0" transform="translate(140,331)"/>
<path d="M0 0 C0.66 0.33 1.32 0.66 2 1 C-0.19471406 5.51135667 -2.41173718 7.06273348 -7 9 C-6.67 8.01 -6.34 7.02 -6 6 C-5.34 6 -4.68 6 -4 6 C-4 5.34 -4 4.68 -4 4 C-3.34 4 -2.68 4 -2 4 C-1.34 2.68 -0.68 1.36 0 0 Z " fill="#F29594" transform="translate(160,147)"/>
<path d="M0 0 C0.33 0.66 0.66 1.32 1 2 C0.34 2 -0.32 2 -1 2 C-1.268125 2.598125 -1.53625 3.19625 -1.8125 3.8125 C-2.98493467 5.97224808 -4.19369282 7.35790256 -6 9 C-6.66 8.67 -7.32 8.34 -8 8 C-7.67 7.01 -7.34 6.02 -7 5 C-6.01 5 -5.02 5 -4 5 C-3.8453125 4.0409375 -3.8453125 4.0409375 -3.6875 3.0625 C-3.460625 2.381875 -3.23375 1.70125 -3 1 C-2.01 0.67 -1.02 0.34 0 0 Z " fill="#F49197" transform="translate(216,316)"/>
<path d="M0 0 C1.32 0 2.64 0 4 0 C4 0.66 4 1.32 4 2 C3.34 2 2.68 2 2 2 C2 2.66 2 3.32 2 4 C1.34 4 0.68 4 0 4 C0 4.66 0 5.32 0 6 C-0.99 6.33 -1.98 6.66 -3 7 C-3 6.01 -3 5.02 -3 4 C-2.34 4 -1.68 4 -1 4 C-0.67 2.68 -0.34 1.36 0 0 Z " fill="#F5ADAC" transform="translate(256,273)"/>
<path d="M0 0 C0.99 0 1.98 0 3 0 C2.30058404 3.14737182 1.23921302 6.02588876 0 9 C-0.33 9 -0.66 9 -1 9 C-1.09765625 2.84765625 -1.09765625 2.84765625 -1 1 C-0.67 0.67 -0.34 0.34 0 0 Z " fill="#F5B3B6" transform="translate(348,191)"/>
<path d="M0 0 C0.33 0.66 0.66 1.32 1 2 C0.34 2 -0.32 2 -1 2 C-1 2.66 -1 3.32 -1 4 C-1.66 4 -2.32 4 -3 4 C-3.66 5.32 -4.32 6.64 -5 8 C-5.99 8 -6.98 8 -8 8 C-7.525625 7.5875 -7.05125 7.175 -6.5625 6.75 C-4.83733482 4.817815 -4.43415125 3.51807725 -4 1 C-2.68 0.67 -1.36 0.34 0 0 Z " fill="#EF9096" transform="translate(337,353)"/>
<path d="M0 0 C2.16874252 0.50603992 3.99967627 0.99983813 6 2 C6 3.32 6 4.64 6 6 C5.34 6 4.68 6 4 6 C4 5.34 4 4.68 4 4 C3.34 4 2.68 4 2 4 C2 3.34 2 2.68 2 2 C1.34 2 0.68 2 0 2 C0 1.34 0 0.68 0 0 Z " fill="#F29592" transform="translate(162,353)"/>
<path d="M0 0 C4.875 4.75 4.875 4.75 6 7 C3.13275314 6.42655063 2.1385485 6.1385485 0 4 C0 2.68 0 1.36 0 0 Z " fill="#EFA4A5" transform="translate(351,320)"/>
<path d="M0 0 C3.0916909 2.52956528 3.90931332 5.22454612 5 9 C3.68 8.67 2.36 8.34 1 8 C0.67 5.36 0.34 2.72 0 0 Z " fill="#F2908E" transform="translate(344,308)"/>
<path d="M0 0 C0.33 0 0.66 0 1 0 C0.67 4.29 0.34 8.58 0 13 C-0.33 13 -0.66 13 -1 13 C-1.33 9.37 -1.66 5.74 -2 2 C-1.34 2 -0.68 2 0 2 C0 1.34 0 0.68 0 0 Z " fill="#EF7E84" transform="translate(335,237)"/>
<path d="M0 0 C0.66 0.33 1.32 0.66 2 1 C-1.44615385 6.78461538 -1.44615385 6.78461538 -4.25 7.875 C-4.8275 7.91625 -5.405 7.9575 -6 8 C-6 7.34 -6 6.68 -6 6 C-5.34 6 -4.68 6 -4 6 C-4 5.34 -4 4.68 -4 4 C-3.34 4 -2.68 4 -2 4 C-1.34 2.68 -0.68 1.36 0 0 Z " fill="#F2878B" transform="translate(168,139)"/>
<path d="M0 0 C0.33 0.66 0.66 1.32 1 2 C-0.375 3.5 -0.375 3.5 -2 5 C-2.66 5 -3.32 5 -4 5 C-4 5.66 -4 6.32 -4 7 C-4.66 6.67 -5.32 6.34 -6 6 C-5.8125 4.125 -5.8125 4.125 -5 2 C-2.4375 0.75 -2.4375 0.75 0 0 Z " fill="#F595A4" transform="translate(184,348)"/>
<path d="M0 0 C0.93065133 2.60582371 1.14917407 3.64198224 0.0625 6.25 C-0.4634375 7.11625 -0.4634375 7.11625 -1 8 C-1.33 7.01 -1.66 6.02 -2 5 C-2.99 5 -3.98 5 -5 5 C-3.35 3.35 -1.7 1.7 0 0 Z " fill="#E75261" transform="translate(287,245)"/>
<path d="M0 0 C0.99 0.33 1.98 0.66 3 1 C3.33 3.31 3.66 5.62 4 8 C1.44971017 6.72485508 1.06918289 5.59658703 0 3 C0 2.01 0 1.02 0 0 Z " fill="#F48586" transform="translate(300,325)"/>
<path d="M0 0 C0.625 1.875 0.625 1.875 1 4 C0.34 4.66 -0.32 5.32 -1 6 C-3.125 5.625 -3.125 5.625 -5 5 C-3.35 3.35 -1.7 1.7 0 0 Z " fill="#FDF1F0" transform="translate(188,279)"/>
<path d="M0 0 C0.625 1.875 0.625 1.875 1 4 C0.34 4.66 -0.32 5.32 -1 6 C-3.125 5.625 -3.125 5.625 -5 5 C-3.35 3.35 -1.7 1.7 0 0 Z " fill="#FDF1F0" transform="translate(204,263)"/>
</svg>
